<svg xmlns="http://www.w3.org/2000/svg" width="400" height="300" viewBox="0 0 400 300">
  <rect width="400" height="300" fill="#f8f4e3" />
  <path d="M80,220 L320,220 L320,250 L80,250 Z" fill="#d4b483" stroke="#8a7967" stroke-width="2" />
  <path d="M120,180 L160,180 L160,220 L120,220 Z" fill="#e6c88a" stroke="#8a7967" stroke-width="2" />
  <rect x="130" y="190" width="20" height="30" fill="#614b3a" />
  <path d="M180,150 L220,150 L220,220 L180,220 Z" fill="#e6c88a" stroke="#8a7967" stroke-width="2" />
  <rect x="190" y="170" width="20" height="30" fill="#614b3a" />
  <path d="M240,180 L280,180 L280,220 L240,220 Z" fill="#e6c88a" stroke="#8a7967" stroke-width="2" />
  <rect x="250" y="190" width="20" height="30" fill="#614b3a" />
  <path d="M190,80 L230,80 L210,50 Z" fill="#d4b483" stroke="#8a7967" stroke-width="2" />
  <rect x="190" y="80" width="40" height="70" fill="#d4b483" stroke="#8a7967" stroke-width="2" />
  <circle cx="210" cy="120" r="10" fill="#e6c88a" stroke="#8a7967" stroke-width="2" />
  <path d="M0,250 L400,250 L400,300 L0,300 Z" fill="#9b7653" stroke="#614b3a" stroke-width="2" />
  <circle cx="50" cy="100" r="20" fill="#7d956d" stroke="#4a6741" stroke-width="2" />
  <circle cx="50" cy="80" r="15" fill="#7d956d" stroke="#4a6741" stroke-width="2" />
  <circle cx="50" cy="65" r="10" fill="#7d956d" stroke="#4a6741" stroke-width="2" />
  <circle cx="350" cy="100" r="20" fill="#7d956d" stroke="#4a6741" stroke-width="2" />
  <circle cx="350" cy="80" r="15" fill="#7d956d" stroke="#4a6741" stroke-width="2" />
  <circle cx="350" cy="65" r="10" fill="#7d956d" stroke="#4a6741" stroke-width="2" />
  <circle cx="150" cy="40" r="20" fill="#f8f7dc" />
  <text x="200" y="275" font-family="Arial" font-size="16" text-anchor="middle" fill="#f8f4e3">Bethlehem - Birthplace of Jesus</text>
</svg>